M48
; DRILL file {KiCad (5.1.12)-1} date 12/18/22 09:53:16
; FORMAT={-:-/ absolute / inch / decimal}
; #@! TF.CreationDate,2022-12-18T09:53:16+01:00
; #@! TF.GenerationSoftware,Kicad,Pcbnew,(5.1.12)-1
; #@! TF.FileFunction,Plated,1,4,PTH
FMAT,2
INCH
T1C0.0177
T2C0.0250
T3C0.0276
T4C0.0295
T5C0.0300
T6C0.0315
T7C0.0354
T8C0.0394
T9C0.0472
%
G90
G05
T1
X3.972Y-4.48
X4.094Y-4.46
X4.118Y-4.5
X4.118Y-4.887
X4.16Y-4.92
X4.23Y-4.36
X4.31Y-4.92
X4.39Y-4.401
X4.44Y-3.27
X4.44Y-4.08
X4.443Y-4.625
X4.463Y-5.23
X4.4695Y-2.3205
X4.48Y-3.38
X4.489Y-3.6733
X4.49Y-3.86
X4.49Y-4.18
X4.5595Y-2.4205
X4.561Y-2.68
X4.5653Y-4.6352
X4.5863Y-5.6319
X4.5863Y-5.6723
X4.589Y-5.7114
X4.597Y-4.546
X4.619Y-4.702
X4.6466Y-5.7356
X4.648Y-4.87
X4.66Y-2.52
X4.6603Y-5.07
X4.6865Y-4.6105
X4.689Y-2.322
X4.6904Y-5.354
X4.725Y-2.45
X4.7338Y-5.7588
X4.738Y-5.864
X4.74Y-4.92
X4.74Y-4.97
X4.7405Y-5.3105
X4.7595Y-2.6205
X4.766Y-4.518
X4.77Y-5.2543
X4.8095Y-4.1205
X4.81Y-2.64
X4.8557Y-3.8205
X4.8805Y-3.6205
X4.8947Y-4.1788
X4.9Y-3.46
X5.0Y-4.81
X5.0005Y-3.9295
X5.0252Y-4.0279
X5.03Y-2.5374
X5.03Y-5.02
X5.05Y-4.9653
X5.0747Y-4.67
X5.0853Y-4.57
X5.1Y-5.09
X5.11Y-4.77
X5.1295Y-2.3395
X5.1352Y-2.86
X5.138Y-5.383
X5.139Y-4.707
X5.14Y-2.74
X5.1472Y-2.98
X5.15Y-5.592
X5.16Y-2.26
X5.166Y-5.171
X5.2Y-3.18
X5.2093Y-2.4728
X5.2093Y-2.7837
X5.234Y-2.393
X5.2377Y-3.2706
X5.261Y-2.48
X5.28Y-2.352
X5.28Y-2.88
X5.285Y-3.1
X5.3153Y-3.1547
X5.3704Y-2.334
X5.371Y-2.609
X5.372Y-2.4553
X5.41Y-3.28
X5.41Y-4.85
X5.44Y-3.4847
X5.45Y-3.21
X5.46Y-2.15
X5.48Y-3.34
X5.493Y-4.534
X5.494Y-5.204
X5.506Y-3.891
X5.52Y-2.92
X5.52Y-3.68
X5.537Y-4.629
X5.537Y-4.995
X5.54Y-2.68
X5.54Y-2.4373
X5.5653Y-3.78
X5.57Y-3.04
X5.573Y-3.88
X5.58Y-2.24
X5.58Y-2.98
X5.608Y-3.895
X5.6275Y-3.1275
X5.637Y-5.385
X5.702Y-5.536
X5.756Y-5.462
X5.7905Y-4.9347
X5.792Y-3.921
X5.84Y-2.38
X5.84Y-2.62
X5.87Y-2.34
X5.87Y-4.87
X5.87Y-5.04
X5.88Y-3.68
X5.8953Y-2.44
X5.896Y-3.8103
X5.9053Y-3.58
X5.93Y-3.12
X5.96Y-2.54
X5.96Y-3.48
X5.99Y-2.13
X5.99Y-2.75
X5.993Y-4.634
X5.998Y-4.806
X6.02Y-2.78
X6.0641Y-2.4115
X6.12Y-2.42
X6.12Y-3.62
X6.125Y-4.512
X6.15Y-4.208
X6.153Y-3.675
X6.1653Y-3.5148
X6.18Y-2.52
X6.183Y-3.782
X6.1878Y-4.4246
X6.19Y-3.47
X6.22Y-2.24
X6.2241Y-3.7109
X6.2492Y-4.53
X6.25Y-3.08
X6.25Y-3.46
X6.25Y-3.58
X6.2653Y-4.626
X6.27Y-4.865
X6.278Y-3.78
X6.2785Y-2.3148
X6.281Y-3.9153
X6.295Y-3.877
X6.305Y-4.925
X6.3095Y-3.7345
X6.31Y-4.108
X6.31Y-5.07
X6.32Y-3.46
X6.33Y-2.62
X6.3515Y-4.9715
X6.3567Y-4.6587
X6.37Y-5.04
X6.377Y-5.17
X6.378Y-5.581
X6.4047Y-4.5679
X6.4047Y-4.7292
X6.442Y-5.473
X6.46Y-3.67
X6.504Y-5.327
X6.535Y-5.53
X6.58Y-2.65
X6.6Y-2.78
X6.6Y-3.28
X6.665Y-3.481
X6.7043Y-4.515
X6.725Y-4.099
X6.733Y-4.77
X6.752Y-3.08
X6.773Y-5.288
X6.7735Y-2.98
X6.786Y-4.744
X6.7885Y-4.4145
X6.8047Y-4.8693
X6.829Y-4.829
X6.9219Y-5.349
X6.922Y-2.8815
X6.926Y-4.124
X6.979Y-5.37
X6.9823Y-4.04
X7.0185Y-3.18
X7.019Y-3.3
X7.019Y-3.98
X7.0257Y-3.3972
X7.0318Y-2.779
X7.039Y-5.226
X7.05Y-3.67
X7.072Y-4.038
X7.1449Y-4.9327
X7.145Y-3.879
X7.152Y-5.63
X7.18Y-4.64
X7.18Y-5.32
X7.1968Y-4.993
X7.1968Y-5.07
X7.206Y-4.292
X7.2117Y-4.7238
X7.2157Y-4.8715
X7.2335Y-4.816
X7.251Y-5.663
X7.2604Y-4.1771
X7.2614Y-4.8465
X7.265Y-3.84
X7.278Y-5.111
X7.2822Y-3.6272
X7.29Y-2.98
X7.2913Y-4.673
X7.301Y-4.9015
X7.3033Y-4.4506
X7.305Y-3.686
X7.342Y-3.379
X7.348Y-5.529
X7.3527Y-4.919
X7.355Y-5.123
X7.39Y-4.2
X7.55Y-5.32
X7.601Y-4.87
X7.63Y-2.88
X7.63Y-3.25
X7.637Y-4.97
X7.657Y-4.599
X7.66Y-2.99
X7.66Y-3.13
X7.668Y-5.07
X7.6707Y-3.8057
X7.671Y-3.58
X7.68Y-2.24
X7.68Y-2.48
X7.7Y-2.74
X7.7Y-3.08
X7.706Y-4.77
X7.706Y-5.415
X7.7123Y-3.8825
X7.7159Y-3.7803
X7.721Y-3.22
X7.73Y-3.93
X7.734Y-4.884
X7.74Y-5.38
X7.7407Y-2.5557
T2
X4.901Y-5.402
X4.94Y-5.402
T3
X4.047Y-5.39
X4.047Y-5.59
X4.13Y-5.39
X4.13Y-5.59
X4.23Y-4.278
X4.23Y-4.478
X4.307Y-5.55
X4.31Y-4.278
X4.31Y-4.478
X4.3385Y-5.5972
X4.37Y-5.55
X4.39Y-4.278
X4.39Y-4.478
X4.4015Y-5.5972
X4.4104Y-2.1759
X4.433Y-5.55
X4.47Y-4.278
X4.47Y-4.478
X4.55Y-4.278
X4.55Y-4.478
X4.6104Y-2.1759
X4.619Y-5.277
X4.63Y-4.278
X4.63Y-4.478
X4.819Y-5.277
X5.167Y-2.1774
X5.367Y-2.1774
X6.4627Y-2.173
X6.63Y-4.013
X6.63Y-4.093
X6.6627Y-2.173
X6.7386Y-2.1729
X6.83Y-4.013
X6.83Y-4.093
X6.9386Y-2.1729
X7.229Y-2.176
X7.429Y-2.176
T4
X6.47Y-4.0476
X6.52Y-3.998
X6.52Y-4.098
T5
X4.26Y-5.54
X4.26Y-5.59
X4.48Y-5.54
X4.48Y-5.59
X4.8236Y-5.6985
X4.825Y-5.75
T6
X4.0366Y-5.305
X4.115Y-5.205
X4.135Y-5.305
X4.24Y-2.28
X4.24Y-2.38
X4.24Y-2.48
X4.24Y-2.58
X4.24Y-2.68
X4.24Y-2.78
X4.24Y-2.88
X4.24Y-2.98
X4.24Y-3.08
X4.24Y-3.1816
X4.24Y-3.28
X4.24Y-3.38
X4.24Y-3.48
X4.24Y-3.58
X4.24Y-3.68
X4.24Y-3.78
X4.24Y-3.88
X4.24Y-3.98
X4.24Y-4.08
X4.24Y-4.18
X4.26Y-2.07
X4.36Y-2.07
X4.36Y-2.28
X4.36Y-2.38
X4.36Y-2.48
X4.36Y-2.58
X4.36Y-2.68
X4.36Y-2.78
X4.36Y-2.88
X4.36Y-2.98
X4.36Y-3.08
X4.36Y-3.18
X4.36Y-3.28
X4.36Y-3.38
X4.36Y-3.48
X4.36Y-3.58
X4.36Y-3.68
X4.36Y-3.78
X4.36Y-3.88
X4.36Y-3.98
X4.36Y-4.08
X4.36Y-4.18
X4.415Y-5.205
X4.46Y-2.07
X4.525Y-4.57
X4.525Y-4.67
X4.525Y-4.77
X4.525Y-4.87
X4.525Y-4.97
X4.525Y-5.07
X4.525Y-5.17
X4.56Y-2.07
X4.66Y-2.07
X4.7536Y-4.37
X4.76Y-2.07
X4.825Y-4.57
X4.825Y-4.67
X4.825Y-4.77
X4.825Y-4.87
X4.825Y-4.97
X4.825Y-5.07
X4.825Y-5.17
X4.852Y-4.37
X4.86Y-2.07
X4.93Y-4.57
X4.93Y-4.67
X4.93Y-4.77
X4.93Y-4.87
X4.93Y-4.97
X4.93Y-5.07
X4.93Y-5.17
X4.93Y-5.27
X4.96Y-2.07
X4.96Y-2.28
X4.96Y-2.38
X4.96Y-2.48
X4.96Y-2.58
X4.96Y-2.68
X4.96Y-2.78
X4.96Y-2.88
X4.96Y-2.98
X4.96Y-3.08
X4.96Y-3.18
X4.96Y-3.28
X4.96Y-3.38
X4.96Y-3.48
X4.96Y-3.58
X4.96Y-3.68
X4.96Y-3.78
X4.96Y-3.88
X4.96Y-3.98
X4.96Y-4.08
X4.96Y-4.18
X4.961Y-4.3196
X4.961Y-4.418
X5.06Y-2.07
X5.07Y-2.28
X5.07Y-2.38
X5.07Y-2.48
X5.07Y-2.58
X5.07Y-2.68
X5.07Y-2.78
X5.07Y-2.88
X5.07Y-2.98
X5.07Y-3.08
X5.07Y-3.18
X5.07Y-3.28
X5.07Y-3.38
X5.07Y-3.48
X5.07Y-3.58
X5.07Y-3.68
X5.07Y-3.78
X5.14Y-4.05
X5.14Y-4.35
X5.22Y-2.07
X5.23Y-4.57
X5.23Y-4.67
X5.23Y-4.77
X5.23Y-4.87
X5.23Y-4.97
X5.23Y-5.07
X5.23Y-5.17
X5.23Y-5.27
X5.32Y-2.07
X5.3396Y-3.893
X5.34Y-4.56
X5.34Y-4.67
X5.34Y-4.77
X5.34Y-4.87
X5.34Y-4.97
X5.34Y-5.07
X5.34Y-5.17
X5.34Y-5.27
X5.42Y-2.07
X5.438Y-3.893
X5.4384Y-4.56
X5.44Y-4.05
X5.44Y-4.35
X5.52Y-2.07
X5.5716Y-2.17
X5.62Y-2.07
X5.64Y-4.56
X5.64Y-4.67
X5.64Y-4.77
X5.64Y-4.87
X5.64Y-4.97
X5.64Y-5.07
X5.64Y-5.17
X5.64Y-5.27
X5.67Y-2.17
X5.67Y-2.28
X5.67Y-2.38
X5.67Y-2.48
X5.67Y-2.58
X5.67Y-2.68
X5.67Y-2.78
X5.67Y-2.88
X5.67Y-2.98
X5.67Y-3.08
X5.67Y-3.18
X5.67Y-3.28
X5.67Y-3.38
X5.67Y-3.48
X5.67Y-3.58
X5.67Y-3.68
X5.67Y-3.78
X5.67Y-4.05
X5.67Y-4.35
X5.72Y-2.07
X5.7384Y-4.56
X5.7498Y-4.67
X5.7498Y-4.77
X5.7498Y-4.87
X5.7498Y-4.97
X5.7498Y-5.07
X5.7498Y-5.17
X5.7498Y-5.27
X5.78Y-2.28
X5.78Y-2.38
X5.78Y-2.48
X5.78Y-2.58
X5.78Y-2.68
X5.78Y-2.78
X5.78Y-2.88
X5.78Y-2.98
X5.78Y-3.08
X5.78Y-3.18
X5.78Y-3.28
X5.78Y-3.38
X5.78Y-3.48
X5.78Y-3.58
X5.78Y-3.68
X5.78Y-3.78
X5.82Y-2.07
X5.8716Y-3.893
X5.92Y-2.07
X5.9516Y-4.56
X5.97Y-3.893
X5.97Y-4.05
X5.97Y-4.35
X6.02Y-2.07
X6.0498Y-4.67
X6.0498Y-4.77
X6.0498Y-4.87
X6.0498Y-4.97
X6.0498Y-5.07
X6.0498Y-5.17
X6.0498Y-5.27
X6.05Y-4.56
X6.16Y-4.37
X6.16Y-4.47
X6.16Y-4.57
X6.16Y-4.67
X6.16Y-4.77
X6.16Y-4.87
X6.16Y-4.97
X6.16Y-5.07
X6.16Y-5.17
X6.16Y-5.27
X6.2816Y-2.17
X6.38Y-2.17
X6.38Y-2.28
X6.38Y-2.38
X6.38Y-2.48
X6.38Y-2.58
X6.38Y-2.68
X6.38Y-2.78
X6.38Y-2.88
X6.38Y-2.98
X6.38Y-3.08
X6.38Y-3.18
X6.38Y-3.28
X6.38Y-3.38
X6.38Y-3.48
X6.38Y-3.58
X6.38Y-3.68
X6.38Y-3.78
X6.455Y-4.255
X6.46Y-4.37
X6.46Y-4.47
X6.46Y-4.57
X6.46Y-4.67
X6.46Y-4.77
X6.46Y-4.87
X6.46Y-4.97
X6.46Y-5.07
X6.46Y-5.17
X6.46Y-5.27
X6.49Y-2.28
X6.49Y-2.38
X6.49Y-2.48
X6.49Y-2.58
X6.49Y-2.68
X6.49Y-2.78
X6.49Y-2.88
X6.49Y-2.98
X6.49Y-3.08
X6.49Y-3.18
X6.49Y-3.28
X6.49Y-3.38
X6.49Y-3.48
X6.49Y-3.58
X6.5534Y-4.255
X6.57Y-4.37
X6.57Y-4.47
X6.57Y-4.57
X6.57Y-4.67
X6.57Y-4.77
X6.57Y-4.87
X6.57Y-4.97
X6.57Y-5.07
X6.57Y-5.17
X6.57Y-5.27
X6.7724Y-4.2599
X6.87Y-4.37
X6.87Y-4.47
X6.87Y-4.57
X6.87Y-4.67
X6.87Y-4.77
X6.87Y-4.87
X6.87Y-4.97
X6.87Y-5.07
X6.87Y-5.17
X6.87Y-5.27
X6.8708Y-4.2599
X6.98Y-4.374
X6.98Y-4.474
X6.98Y-4.574
X6.98Y-4.674
X6.98Y-4.774
X6.98Y-4.874
X6.98Y-4.974
X6.98Y-5.074
X6.98Y-5.174
X7.0229Y-2.1696
X7.09Y-2.28
X7.09Y-2.38
X7.09Y-2.48
X7.09Y-2.58
X7.09Y-2.68
X7.09Y-2.78
X7.09Y-2.88
X7.09Y-2.98
X7.09Y-3.08
X7.09Y-3.18
X7.09Y-3.28
X7.09Y-3.38
X7.09Y-3.48
X7.09Y-3.58
X7.09Y-4.37
X7.09Y-4.47
X7.09Y-4.57
X7.09Y-4.67
X7.09Y-4.77
X7.09Y-4.87
X7.09Y-4.97
X7.09Y-5.07
X7.09Y-5.17
X7.09Y-5.27
X7.1213Y-2.1696
X7.2Y-2.28
X7.2Y-2.38
X7.2Y-2.48
X7.2Y-2.58
X7.2Y-2.68
X7.2Y-2.78
X7.2Y-2.88
X7.2Y-2.98
X7.2Y-3.08
X7.2Y-3.18
X7.2Y-3.28
X7.2Y-3.38
X7.2Y-3.48
X7.2Y-3.58
X7.2Y-3.68
X7.2Y-3.78
X7.2Y-3.88
X7.2Y-3.98
X7.2Y-4.08
X7.2Y-4.18
X7.39Y-4.37
X7.39Y-4.47
X7.39Y-4.57
X7.39Y-4.67
X7.39Y-4.77
X7.39Y-4.87
X7.39Y-4.97
X7.39Y-5.07
X7.39Y-5.17
X7.39Y-5.27
X7.5Y-4.28
X7.5Y-4.57
X7.5Y-4.67
X7.5Y-4.77
X7.5Y-4.87
X7.5Y-4.97
X7.5Y-5.07
X7.5Y-5.17
X7.5Y-5.27
X7.504Y-4.3655
X7.504Y-4.4639
X7.51Y-2.17
X7.5984Y-4.28
X7.604Y-4.3655
X7.604Y-4.4639
X7.6084Y-2.17
X7.704Y-4.3655
X7.704Y-4.4639
X7.705Y-4.28
X7.8Y-2.28
X7.8Y-2.38
X7.8Y-2.48
X7.8Y-2.58
X7.8Y-2.68
X7.8Y-2.78
X7.8Y-2.88
X7.8Y-2.98
X7.8Y-3.08
X7.8Y-3.18
X7.8Y-3.28
X7.8Y-3.38
X7.8Y-3.48
X7.8Y-3.58
X7.8Y-3.68
X7.8Y-3.78
X7.8Y-3.88
X7.8Y-3.98
X7.8Y-4.08
X7.8Y-4.18
X7.8Y-4.57
X7.8Y-4.67
X7.8Y-4.77
X7.8Y-4.87
X7.8Y-4.97
X7.8Y-5.07
X7.8Y-5.17
X7.8Y-5.27
X7.8034Y-4.28
X7.804Y-4.3655
X7.804Y-4.4639
T7
X4.28Y-5.355
X4.28Y-5.455
X4.46Y-5.355
X4.46Y-5.455
T8
X4.01Y-2.28
X4.01Y-2.38
X4.01Y-2.48
X4.01Y-2.58
X4.01Y-2.68
X4.01Y-2.78
X4.01Y-2.88
X4.01Y-2.98
X4.01Y-3.08
X4.01Y-3.18
X4.01Y-3.28
X4.01Y-3.38
X4.01Y-3.48
X4.01Y-3.58
X4.01Y-3.68
X4.01Y-3.78
X4.01Y-3.88
X4.01Y-3.98
X4.01Y-4.08
X4.01Y-4.18
X4.01Y-4.28
X4.01Y-4.38
X4.01Y-4.589
X4.01Y-4.689
X4.01Y-4.789
X4.01Y-4.889
X4.01Y-4.989
X4.01Y-5.089
X4.01Y-5.189
X4.11Y-2.28
X4.11Y-2.38
X4.11Y-2.48
X4.11Y-2.58
X4.11Y-2.68
X4.11Y-2.78
X4.11Y-2.88
X4.11Y-2.98
X4.11Y-3.08
X4.11Y-3.18
X4.11Y-3.28
X4.11Y-3.38
X4.11Y-3.48
X4.11Y-3.58
X4.11Y-3.68
X4.11Y-3.78
X4.11Y-3.88
X4.11Y-3.98
X4.11Y-4.08
X4.11Y-4.18
X4.11Y-4.28
X4.11Y-4.38
X5.19Y-5.48
X5.19Y-5.7
X5.19Y-5.8
X5.29Y-5.48
X5.29Y-5.7
X5.29Y-5.8
X5.39Y-5.48
X5.39Y-5.7
X5.39Y-5.8
X5.49Y-5.48
X5.49Y-5.7
X5.49Y-5.8
X5.59Y-5.48
X5.59Y-5.7
X5.59Y-5.8
X5.9Y-5.48
X5.9Y-5.7
X5.9Y-5.8
X6.0Y-5.48
X6.0Y-5.7
X6.0Y-5.8
X6.1Y-5.48
X6.1Y-5.7
X6.1Y-5.8
X6.167Y-2.0479
X6.167Y-2.1479
X6.2Y-5.48
X6.2Y-5.7
X6.2Y-5.8
X6.3Y-5.48
X6.3Y-5.7
X6.3Y-5.8
X6.6Y-5.48
X6.6Y-5.58
X6.7Y-5.48
X6.7Y-5.58
X6.7515Y-3.7675
X6.7515Y-3.8675
X6.8Y-5.48
X6.8Y-5.58
X6.8515Y-3.7675
X6.8515Y-3.8675
X6.9Y-5.48
X6.9Y-5.58
X6.9515Y-3.7675
X6.9515Y-3.8675
X6.975Y-4.211
X7.0Y-5.48
X7.0Y-5.58
X7.075Y-4.211
X7.1Y-5.48
X7.1Y-5.58
X7.2Y-5.48
X7.2Y-5.58
X7.3Y-5.48
X7.3Y-5.58
X7.4Y-5.48
X7.4Y-5.58
X7.5Y-5.48
X7.5Y-5.58
X7.6Y-5.48
X7.6Y-5.58
X7.7Y-5.48
X7.7Y-5.58
X7.8Y-5.48
X7.8Y-5.58
T9
X4.2258Y-4.832
X4.2258Y-5.0879
X4.403Y-4.832
X4.403Y-5.0879
T3
G00X4.2263Y-5.7724
M15
G01X4.2263Y-5.7252
M16
G05
G00X4.5137Y-5.7724
M15
G01X4.5137Y-5.7252
M16
G05
T0
M30
