G04 #@! TF.GenerationSoftware,KiCad,Pcbnew,(5.1.12)-1*
G04 #@! TF.CreationDate,2022-12-18T09:53:10+01:00*
G04 #@! TF.ProjectId,2063-Z80,32303633-2d5a-4383-902e-6b696361645f,4.3*
G04 #@! TF.SameCoordinates,Original*
G04 #@! TF.FileFunction,Soldermask,Top*
G04 #@! TF.FilePolarity,Negative*
%FSLAX46Y46*%
G04 Gerber Fmt 4.6, Leading zero omitted, Abs format (unit mm)*
G04 Created by KiCad (PCBNEW (5.1.12)-1) date 2022-12-18 09:53:10*
%MOMM*%
%LPD*%
G01*
G04 APERTURE LIST*
%ADD10O,1.800000X1.800000*%
%ADD11O,1.500000X1.500000*%
%ADD12C,1.500000*%
%ADD13O,1.700000X1.700000*%
%ADD14C,1.700000*%
%ADD15C,1.400000*%
%ADD16C,4.700000*%
%ADD17O,1.800000X2.800000*%
%ADD18O,1.200000X1.750000*%
%ADD19C,1.900000*%
%ADD20C,2.300000*%
%ADD21C,0.100000*%
G04 APERTURE END LIST*
D10*
X104394000Y-111252000D03*
X101854000Y-111252000D03*
X104394000Y-108712000D03*
G36*
G01*
X100954000Y-109562000D02*
X100954000Y-107862000D01*
G75*
G02*
X101004000Y-107812000I50000J0D01*
G01*
X102704000Y-107812000D01*
G75*
G02*
X102754000Y-107862000I0J-50000D01*
G01*
X102754000Y-109562000D01*
G75*
G02*
X102704000Y-109612000I-50000J0D01*
G01*
X101004000Y-109612000D01*
G75*
G02*
X100954000Y-109562000I0J50000D01*
G01*
G37*
D11*
X176240440Y-55191660D03*
D12*
X171160440Y-55191660D03*
D11*
X112024160Y-55267860D03*
D12*
X117104160Y-55267860D03*
D11*
X136321800Y-55305960D03*
D12*
X131241800Y-55305960D03*
D10*
X156641800Y-54556660D03*
G36*
G01*
X155741800Y-52866660D02*
X155741800Y-51166660D01*
G75*
G02*
X155791800Y-51116660I50000J0D01*
G01*
X157491800Y-51116660D01*
G75*
G02*
X157541800Y-51166660I0J-50000D01*
G01*
X157541800Y-52866660D01*
G75*
G02*
X157491800Y-52916660I-50000J0D01*
G01*
X155791800Y-52916660D01*
G75*
G02*
X155741800Y-52866660I0J50000D01*
G01*
G37*
G36*
G01*
X145194920Y-119418000D02*
X145194920Y-117818000D01*
G75*
G02*
X145244920Y-117768000I50000J0D01*
G01*
X146844920Y-117768000D01*
G75*
G02*
X146894920Y-117818000I0J-50000D01*
G01*
X146894920Y-119418000D01*
G75*
G02*
X146844920Y-119468000I-50000J0D01*
G01*
X145244920Y-119468000D01*
G75*
G02*
X145194920Y-119418000I0J50000D01*
G01*
G37*
D13*
X153664920Y-133858000D03*
X146044920Y-121158000D03*
X153664920Y-131318000D03*
X146044920Y-123698000D03*
X153664920Y-128778000D03*
X146044920Y-126238000D03*
X153664920Y-126238000D03*
X146044920Y-128778000D03*
X153664920Y-123698000D03*
X146044920Y-131318000D03*
X153664920Y-121158000D03*
X146044920Y-133858000D03*
X153664920Y-118618000D03*
D10*
X177165000Y-106959400D03*
G36*
G01*
X178855000Y-106059400D02*
X180555000Y-106059400D01*
G75*
G02*
X180605000Y-106109400I0J-50000D01*
G01*
X180605000Y-107809400D01*
G75*
G02*
X180555000Y-107859400I-50000J0D01*
G01*
X178855000Y-107859400D01*
G75*
G02*
X178805000Y-107809400I0J50000D01*
G01*
X178805000Y-106109400D01*
G75*
G02*
X178855000Y-106059400I50000J0D01*
G01*
G37*
D11*
X164152580Y-55194200D03*
D12*
X169232580Y-55194200D03*
D11*
X188696600Y-55270400D03*
D12*
X183616600Y-55270400D03*
G36*
G01*
X130266000Y-108270000D02*
X133266000Y-108270000D01*
G75*
G02*
X133316000Y-108320000I0J-50000D01*
G01*
X133316000Y-110300000D01*
G75*
G02*
X133266000Y-110350000I-50000J0D01*
G01*
X130266000Y-110350000D01*
G75*
G02*
X130216000Y-110300000I0J50000D01*
G01*
X130216000Y-108320000D01*
G75*
G02*
X130266000Y-108270000I50000J0D01*
G01*
G37*
G36*
G01*
X130266000Y-103010000D02*
X133266000Y-103010000D01*
G75*
G02*
X133316000Y-103060000I0J-50000D01*
G01*
X133316000Y-105040000D01*
G75*
G02*
X133266000Y-105090000I-50000J0D01*
G01*
X130266000Y-105090000D01*
G75*
G02*
X130216000Y-105040000I0J50000D01*
G01*
X130216000Y-103060000D01*
G75*
G02*
X130266000Y-103010000I50000J0D01*
G01*
G37*
G36*
G01*
X135466000Y-108270000D02*
X138466000Y-108270000D01*
G75*
G02*
X138516000Y-108320000I0J-50000D01*
G01*
X138516000Y-110300000D01*
G75*
G02*
X138466000Y-110350000I-50000J0D01*
G01*
X135466000Y-110350000D01*
G75*
G02*
X135416000Y-110300000I0J50000D01*
G01*
X135416000Y-108320000D01*
G75*
G02*
X135466000Y-108270000I50000J0D01*
G01*
G37*
G36*
G01*
X135466000Y-103010000D02*
X138466000Y-103010000D01*
G75*
G02*
X138516000Y-103060000I0J-50000D01*
G01*
X138516000Y-105040000D01*
G75*
G02*
X138466000Y-105090000I-50000J0D01*
G01*
X135466000Y-105090000D01*
G75*
G02*
X135416000Y-105040000I0J50000D01*
G01*
X135416000Y-103060000D01*
G75*
G02*
X135466000Y-103010000I50000J0D01*
G01*
G37*
D14*
X130556000Y-110490000D03*
X138176000Y-110490000D03*
X138176000Y-102870000D03*
G36*
G01*
X129756000Y-102020000D02*
X131356000Y-102020000D01*
G75*
G02*
X131406000Y-102070000I0J-50000D01*
G01*
X131406000Y-103670000D01*
G75*
G02*
X131356000Y-103720000I-50000J0D01*
G01*
X129756000Y-103720000D01*
G75*
G02*
X129706000Y-103670000I0J50000D01*
G01*
X129706000Y-102070000D01*
G75*
G02*
X129756000Y-102020000I50000J0D01*
G01*
G37*
G36*
G01*
X143728000Y-108270000D02*
X146728000Y-108270000D01*
G75*
G02*
X146778000Y-108320000I0J-50000D01*
G01*
X146778000Y-110300000D01*
G75*
G02*
X146728000Y-110350000I-50000J0D01*
G01*
X143728000Y-110350000D01*
G75*
G02*
X143678000Y-110300000I0J50000D01*
G01*
X143678000Y-108320000D01*
G75*
G02*
X143728000Y-108270000I50000J0D01*
G01*
G37*
G36*
G01*
X143728000Y-103010000D02*
X146728000Y-103010000D01*
G75*
G02*
X146778000Y-103060000I0J-50000D01*
G01*
X146778000Y-105040000D01*
G75*
G02*
X146728000Y-105090000I-50000J0D01*
G01*
X143728000Y-105090000D01*
G75*
G02*
X143678000Y-105040000I0J50000D01*
G01*
X143678000Y-103060000D01*
G75*
G02*
X143728000Y-103010000I50000J0D01*
G01*
G37*
G36*
G01*
X148928000Y-108270000D02*
X151928000Y-108270000D01*
G75*
G02*
X151978000Y-108320000I0J-50000D01*
G01*
X151978000Y-110300000D01*
G75*
G02*
X151928000Y-110350000I-50000J0D01*
G01*
X148928000Y-110350000D01*
G75*
G02*
X148878000Y-110300000I0J50000D01*
G01*
X148878000Y-108320000D01*
G75*
G02*
X148928000Y-108270000I50000J0D01*
G01*
G37*
G36*
G01*
X148928000Y-103010000D02*
X151928000Y-103010000D01*
G75*
G02*
X151978000Y-103060000I0J-50000D01*
G01*
X151978000Y-105040000D01*
G75*
G02*
X151928000Y-105090000I-50000J0D01*
G01*
X148928000Y-105090000D01*
G75*
G02*
X148878000Y-105040000I0J50000D01*
G01*
X148878000Y-103060000D01*
G75*
G02*
X148928000Y-103010000I50000J0D01*
G01*
G37*
X144018000Y-110490000D03*
X151638000Y-110490000D03*
X151638000Y-102870000D03*
G36*
G01*
X143218000Y-102020000D02*
X144818000Y-102020000D01*
G75*
G02*
X144868000Y-102070000I0J-50000D01*
G01*
X144868000Y-103670000D01*
G75*
G02*
X144818000Y-103720000I-50000J0D01*
G01*
X143218000Y-103720000D01*
G75*
G02*
X143168000Y-103670000I0J50000D01*
G01*
X143168000Y-102070000D01*
G75*
G02*
X143218000Y-102020000I50000J0D01*
G01*
G37*
D11*
X104902000Y-141986000D03*
D12*
X104902000Y-136906000D03*
D13*
X122555000Y-116078000D03*
X114935000Y-131318000D03*
X122555000Y-118618000D03*
X114935000Y-128778000D03*
X122555000Y-121158000D03*
X114935000Y-126238000D03*
X122555000Y-123698000D03*
X114935000Y-123698000D03*
X122555000Y-126238000D03*
X114935000Y-121158000D03*
X122555000Y-128778000D03*
X114935000Y-118618000D03*
X122555000Y-131318000D03*
G36*
G01*
X114085000Y-116878000D02*
X114085000Y-115278000D01*
G75*
G02*
X114135000Y-115228000I50000J0D01*
G01*
X115735000Y-115228000D01*
G75*
G02*
X115785000Y-115278000I0J-50000D01*
G01*
X115785000Y-116878000D01*
G75*
G02*
X115735000Y-116928000I-50000J0D01*
G01*
X114135000Y-116928000D01*
G75*
G02*
X114085000Y-116878000I0J50000D01*
G01*
G37*
G36*
G01*
X166308000Y-103439200D02*
X166308000Y-104739200D01*
G75*
G02*
X166258000Y-104789200I-50000J0D01*
G01*
X164958000Y-104789200D01*
G75*
G02*
X164908000Y-104739200I0J50000D01*
G01*
X164908000Y-103439200D01*
G75*
G02*
X164958000Y-103389200I50000J0D01*
G01*
X166258000Y-103389200D01*
G75*
G02*
X166308000Y-103439200I0J-50000D01*
G01*
G37*
D15*
X165608000Y-101549200D03*
X164338000Y-102809200D03*
D10*
X171488100Y-98234500D03*
X171488100Y-95694500D03*
X174028100Y-98234500D03*
X174028100Y-95694500D03*
X176568100Y-98234500D03*
G36*
G01*
X175718100Y-94794500D02*
X177418100Y-94794500D01*
G75*
G02*
X177468100Y-94844500I0J-50000D01*
G01*
X177468100Y-96544500D01*
G75*
G02*
X177418100Y-96594500I-50000J0D01*
G01*
X175718100Y-96594500D01*
G75*
G02*
X175668100Y-96544500I0J50000D01*
G01*
X175668100Y-94844500D01*
G75*
G02*
X175718100Y-94794500I50000J0D01*
G01*
G37*
D14*
X126009400Y-109717200D03*
X126009400Y-112217200D03*
X120740800Y-110998000D03*
G36*
G01*
X124090800Y-110198000D02*
X124090800Y-111798000D01*
G75*
G02*
X124040800Y-111848000I-50000J0D01*
G01*
X122440800Y-111848000D01*
G75*
G02*
X122390800Y-111798000I0J50000D01*
G01*
X122390800Y-110198000D01*
G75*
G02*
X122440800Y-110148000I50000J0D01*
G01*
X124040800Y-110148000D01*
G75*
G02*
X124090800Y-110198000I0J-50000D01*
G01*
G37*
D10*
X101854000Y-131800600D03*
X101854000Y-129260600D03*
X101854000Y-126720600D03*
X101854000Y-124180600D03*
X101854000Y-121640600D03*
X101854000Y-119100600D03*
G36*
G01*
X100954000Y-117410600D02*
X100954000Y-115710600D01*
G75*
G02*
X101004000Y-115660600I50000J0D01*
G01*
X102704000Y-115660600D01*
G75*
G02*
X102754000Y-115710600I0J-50000D01*
G01*
X102754000Y-117410600D01*
G75*
G02*
X102704000Y-117460600I-50000J0D01*
G01*
X101004000Y-117460600D01*
G75*
G02*
X100954000Y-117410600I0J50000D01*
G01*
G37*
G36*
G01*
X134786000Y-119418000D02*
X134786000Y-117818000D01*
G75*
G02*
X134836000Y-117768000I50000J0D01*
G01*
X136436000Y-117768000D01*
G75*
G02*
X136486000Y-117818000I0J-50000D01*
G01*
X136486000Y-119418000D01*
G75*
G02*
X136436000Y-119468000I-50000J0D01*
G01*
X134836000Y-119468000D01*
G75*
G02*
X134786000Y-119418000I0J50000D01*
G01*
G37*
D13*
X143256000Y-133858000D03*
X135636000Y-121158000D03*
X143256000Y-131318000D03*
X135636000Y-123698000D03*
X143256000Y-128778000D03*
X135636000Y-126238000D03*
X143256000Y-126238000D03*
X135636000Y-128778000D03*
X143256000Y-123698000D03*
X135636000Y-131318000D03*
X143256000Y-121158000D03*
X135636000Y-133858000D03*
X143256000Y-118618000D03*
X144018000Y-57912000D03*
X128778000Y-96012000D03*
X144018000Y-60452000D03*
X128778000Y-93472000D03*
X144018000Y-62992000D03*
X128778000Y-90932000D03*
X144018000Y-65532000D03*
X128778000Y-88392000D03*
X144018000Y-68072000D03*
X128778000Y-85852000D03*
X144018000Y-70612000D03*
X128778000Y-83312000D03*
X144018000Y-73152000D03*
X128778000Y-80772000D03*
X144018000Y-75692000D03*
X128778000Y-78232000D03*
X144018000Y-78232000D03*
X128778000Y-75692000D03*
X144018000Y-80772000D03*
X128778000Y-73152000D03*
X144018000Y-83312000D03*
X128778000Y-70612000D03*
X144018000Y-85852000D03*
X128778000Y-68072000D03*
X144018000Y-88392000D03*
X128778000Y-65532000D03*
X144018000Y-90932000D03*
X128778000Y-62992000D03*
X144018000Y-93472000D03*
X128778000Y-60452000D03*
X144018000Y-96012000D03*
G36*
G01*
X127928000Y-58712000D02*
X127928000Y-57112000D01*
G75*
G02*
X127978000Y-57062000I50000J0D01*
G01*
X129578000Y-57062000D01*
G75*
G02*
X129628000Y-57112000I0J-50000D01*
G01*
X129628000Y-58712000D01*
G75*
G02*
X129578000Y-58762000I-50000J0D01*
G01*
X127978000Y-58762000D01*
G75*
G02*
X127928000Y-58712000I0J50000D01*
G01*
G37*
D11*
X173482000Y-103962200D03*
D12*
X168402000Y-103962200D03*
D11*
X173482000Y-101930200D03*
D12*
X168402000Y-101930200D03*
D14*
X135625200Y-98882200D03*
X138125200Y-98882200D03*
D11*
X102793800Y-141986000D03*
D12*
X102793800Y-136906000D03*
D11*
X122402600Y-134035800D03*
D12*
X117322600Y-134035800D03*
D11*
X115570000Y-108661200D03*
D12*
X115570000Y-113741200D03*
D11*
X111506000Y-108661200D03*
D12*
X111506000Y-113741200D03*
D11*
X117602000Y-113741200D03*
D12*
X117602000Y-108661200D03*
D11*
X113538000Y-113741200D03*
D12*
X113538000Y-108661200D03*
D11*
X109474000Y-113741200D03*
D12*
X109474000Y-108661200D03*
D11*
X107442000Y-108661200D03*
D12*
X107442000Y-113741200D03*
D13*
X128524000Y-52578000D03*
X125984000Y-52578000D03*
X123444000Y-52578000D03*
X120904000Y-52578000D03*
X118364000Y-52578000D03*
X115824000Y-52578000D03*
X113284000Y-52578000D03*
X110744000Y-52578000D03*
G36*
G01*
X107354000Y-53378000D02*
X107354000Y-51778000D01*
G75*
G02*
X107404000Y-51728000I50000J0D01*
G01*
X109004000Y-51728000D01*
G75*
G02*
X109054000Y-51778000I0J-50000D01*
G01*
X109054000Y-53378000D01*
G75*
G02*
X109004000Y-53428000I-50000J0D01*
G01*
X107404000Y-53428000D01*
G75*
G02*
X107354000Y-53378000I0J50000D01*
G01*
G37*
X107696000Y-78232000D03*
X107696000Y-75692000D03*
X107696000Y-73152000D03*
X107696000Y-70612000D03*
X107696000Y-68072000D03*
X107696000Y-65532000D03*
X107696000Y-62992000D03*
X107696000Y-60452000D03*
G36*
G01*
X106896000Y-57062000D02*
X108496000Y-57062000D01*
G75*
G02*
X108546000Y-57112000I0J-50000D01*
G01*
X108546000Y-58712000D01*
G75*
G02*
X108496000Y-58762000I-50000J0D01*
G01*
X106896000Y-58762000D01*
G75*
G02*
X106846000Y-58712000I0J50000D01*
G01*
X106846000Y-57112000D01*
G75*
G02*
X106896000Y-57062000I50000J0D01*
G01*
G37*
X107696000Y-85852000D03*
X107696000Y-88392000D03*
X107696000Y-90932000D03*
X107696000Y-93472000D03*
X107696000Y-96012000D03*
X107696000Y-98552000D03*
X107696000Y-101092000D03*
X107696000Y-103632000D03*
G36*
G01*
X108496000Y-107022000D02*
X106896000Y-107022000D01*
G75*
G02*
X106846000Y-106972000I0J50000D01*
G01*
X106846000Y-105372000D01*
G75*
G02*
X106896000Y-105322000I50000J0D01*
G01*
X108496000Y-105322000D01*
G75*
G02*
X108546000Y-105372000I0J-50000D01*
G01*
X108546000Y-106972000D01*
G75*
G02*
X108496000Y-107022000I-50000J0D01*
G01*
G37*
X198120000Y-116078000D03*
X190500000Y-133858000D03*
X198120000Y-118618000D03*
X190500000Y-131318000D03*
X198120000Y-121158000D03*
X190500000Y-128778000D03*
X198120000Y-123698000D03*
X190500000Y-126238000D03*
X198120000Y-126238000D03*
X190500000Y-123698000D03*
X198120000Y-128778000D03*
X190500000Y-121158000D03*
X198120000Y-131318000D03*
X190500000Y-118618000D03*
X198120000Y-133858000D03*
G36*
G01*
X189650000Y-116878000D02*
X189650000Y-115278000D01*
G75*
G02*
X189700000Y-115228000I50000J0D01*
G01*
X191300000Y-115228000D01*
G75*
G02*
X191350000Y-115278000I0J-50000D01*
G01*
X191350000Y-116878000D01*
G75*
G02*
X191300000Y-116928000I-50000J0D01*
G01*
X189700000Y-116928000D01*
G75*
G02*
X189650000Y-116878000I0J50000D01*
G01*
G37*
G36*
G01*
X103671000Y-133007000D02*
X103671000Y-131407000D01*
G75*
G02*
X103721000Y-131357000I50000J0D01*
G01*
X105321000Y-131357000D01*
G75*
G02*
X105371000Y-131407000I0J-50000D01*
G01*
X105371000Y-133007000D01*
G75*
G02*
X105321000Y-133057000I-50000J0D01*
G01*
X103721000Y-133057000D01*
G75*
G02*
X103671000Y-133007000I0J50000D01*
G01*
G37*
X112141000Y-132207000D03*
X162052000Y-57912000D03*
X146812000Y-96012000D03*
X162052000Y-60452000D03*
X146812000Y-93472000D03*
X162052000Y-62992000D03*
X146812000Y-90932000D03*
X162052000Y-65532000D03*
X146812000Y-88392000D03*
X162052000Y-68072000D03*
X146812000Y-85852000D03*
X162052000Y-70612000D03*
X146812000Y-83312000D03*
X162052000Y-73152000D03*
X146812000Y-80772000D03*
X162052000Y-75692000D03*
X146812000Y-78232000D03*
X162052000Y-78232000D03*
X146812000Y-75692000D03*
X162052000Y-80772000D03*
X146812000Y-73152000D03*
X162052000Y-83312000D03*
X146812000Y-70612000D03*
X162052000Y-85852000D03*
X146812000Y-68072000D03*
X162052000Y-88392000D03*
X146812000Y-65532000D03*
X162052000Y-90932000D03*
X146812000Y-62992000D03*
X162052000Y-93472000D03*
X146812000Y-60452000D03*
X162052000Y-96012000D03*
G36*
G01*
X145962000Y-58712000D02*
X145962000Y-57112000D01*
G75*
G02*
X146012000Y-57062000I50000J0D01*
G01*
X147612000Y-57062000D01*
G75*
G02*
X147662000Y-57112000I0J-50000D01*
G01*
X147662000Y-58712000D01*
G75*
G02*
X147612000Y-58762000I-50000J0D01*
G01*
X146012000Y-58762000D01*
G75*
G02*
X145962000Y-58712000I0J50000D01*
G01*
G37*
D10*
X141986000Y-139192000D03*
X139446000Y-139192000D03*
X136906000Y-139192000D03*
X134366000Y-139192000D03*
G36*
G01*
X132676000Y-140092000D02*
X130976000Y-140092000D01*
G75*
G02*
X130926000Y-140042000I0J50000D01*
G01*
X130926000Y-138342000D01*
G75*
G02*
X130976000Y-138292000I50000J0D01*
G01*
X132676000Y-138292000D01*
G75*
G02*
X132726000Y-138342000I0J-50000D01*
G01*
X132726000Y-140042000D01*
G75*
G02*
X132676000Y-140092000I-50000J0D01*
G01*
G37*
X160020000Y-139192000D03*
X157480000Y-139192000D03*
X154940000Y-139192000D03*
X152400000Y-139192000D03*
G36*
G01*
X150710000Y-140092000D02*
X149010000Y-140092000D01*
G75*
G02*
X148960000Y-140042000I0J50000D01*
G01*
X148960000Y-138342000D01*
G75*
G02*
X149010000Y-138292000I50000J0D01*
G01*
X150710000Y-138292000D01*
G75*
G02*
X150760000Y-138342000I0J-50000D01*
G01*
X150760000Y-140042000D01*
G75*
G02*
X150710000Y-140092000I-50000J0D01*
G01*
G37*
X141986000Y-144780000D03*
X141986000Y-147320000D03*
X139446000Y-144780000D03*
X139446000Y-147320000D03*
X136906000Y-144780000D03*
X136906000Y-147320000D03*
X134366000Y-144780000D03*
X134366000Y-147320000D03*
X131826000Y-144780000D03*
G36*
G01*
X132676000Y-148220000D02*
X130976000Y-148220000D01*
G75*
G02*
X130926000Y-148170000I0J50000D01*
G01*
X130926000Y-146470000D01*
G75*
G02*
X130976000Y-146420000I50000J0D01*
G01*
X132676000Y-146420000D01*
G75*
G02*
X132726000Y-146470000I0J-50000D01*
G01*
X132726000Y-148170000D01*
G75*
G02*
X132676000Y-148220000I-50000J0D01*
G01*
G37*
X160020000Y-144780000D03*
X160020000Y-147320000D03*
X157480000Y-144780000D03*
X157480000Y-147320000D03*
X154940000Y-144780000D03*
X154940000Y-147320000D03*
X152400000Y-144780000D03*
X152400000Y-147320000D03*
X149860000Y-144780000D03*
G36*
G01*
X150710000Y-148220000D02*
X149010000Y-148220000D01*
G75*
G02*
X148960000Y-148170000I0J50000D01*
G01*
X148960000Y-146470000D01*
G75*
G02*
X149010000Y-146420000I50000J0D01*
G01*
X150710000Y-146420000D01*
G75*
G02*
X150760000Y-146470000I0J-50000D01*
G01*
X150760000Y-148170000D01*
G75*
G02*
X150710000Y-148220000I-50000J0D01*
G01*
G37*
D13*
X177292000Y-131419600D03*
X177292000Y-128879600D03*
X177292000Y-126339600D03*
X177292000Y-123799600D03*
X177292000Y-121259600D03*
X177292000Y-118719600D03*
X177292000Y-116179600D03*
X177292000Y-113639600D03*
G36*
G01*
X176492000Y-110249600D02*
X178092000Y-110249600D01*
G75*
G02*
X178142000Y-110299600I0J-50000D01*
G01*
X178142000Y-111899600D01*
G75*
G02*
X178092000Y-111949600I-50000J0D01*
G01*
X176492000Y-111949600D01*
G75*
G02*
X176442000Y-111899600I0J50000D01*
G01*
X176442000Y-110299600D01*
G75*
G02*
X176492000Y-110249600I50000J0D01*
G01*
G37*
D14*
X149138000Y-98882200D03*
X151638000Y-98882200D03*
D16*
X197000000Y-147000000D03*
D13*
X125984000Y-57912000D03*
X110744000Y-106172000D03*
X125984000Y-60452000D03*
X110744000Y-103632000D03*
X125984000Y-62992000D03*
X110744000Y-101092000D03*
X125984000Y-65532000D03*
X110744000Y-98552000D03*
X125984000Y-68072000D03*
X110744000Y-96012000D03*
X125984000Y-70612000D03*
X110744000Y-93472000D03*
X125984000Y-73152000D03*
X110744000Y-90932000D03*
X125984000Y-75692000D03*
X110744000Y-88392000D03*
X125984000Y-78232000D03*
X110744000Y-85852000D03*
X125984000Y-80772000D03*
X110744000Y-83312000D03*
X125984000Y-83312000D03*
X110744000Y-80772000D03*
X125984000Y-85852000D03*
X110744000Y-78232000D03*
X125984000Y-88392000D03*
X110744000Y-75692000D03*
X125984000Y-90932000D03*
X110744000Y-73152000D03*
X125984000Y-93472000D03*
X110744000Y-70612000D03*
X125984000Y-96012000D03*
X110744000Y-68072000D03*
X125984000Y-98552000D03*
X110744000Y-65532000D03*
X125984000Y-101092000D03*
X110744000Y-62992000D03*
X125984000Y-103632000D03*
X110744000Y-60452000D03*
X125984000Y-106172000D03*
G36*
G01*
X109894000Y-58712000D02*
X109894000Y-57112000D01*
G75*
G02*
X109944000Y-57062000I50000J0D01*
G01*
X111544000Y-57062000D01*
G75*
G02*
X111594000Y-57112000I0J-50000D01*
G01*
X111594000Y-58712000D01*
G75*
G02*
X111544000Y-58762000I-50000J0D01*
G01*
X109944000Y-58762000D01*
G75*
G02*
X109894000Y-58712000I0J50000D01*
G01*
G37*
X198120000Y-57912000D03*
X182880000Y-106172000D03*
X198120000Y-60452000D03*
X182880000Y-103632000D03*
X198120000Y-62992000D03*
X182880000Y-101092000D03*
X198120000Y-65532000D03*
X182880000Y-98552000D03*
X198120000Y-68072000D03*
X182880000Y-96012000D03*
X198120000Y-70612000D03*
X182880000Y-93472000D03*
X198120000Y-73152000D03*
X182880000Y-90932000D03*
X198120000Y-75692000D03*
X182880000Y-88392000D03*
X198120000Y-78232000D03*
X182880000Y-85852000D03*
X198120000Y-80772000D03*
X182880000Y-83312000D03*
X198120000Y-83312000D03*
X182880000Y-80772000D03*
X198120000Y-85852000D03*
X182880000Y-78232000D03*
X198120000Y-88392000D03*
X182880000Y-75692000D03*
X198120000Y-90932000D03*
X182880000Y-73152000D03*
X198120000Y-93472000D03*
X182880000Y-70612000D03*
X198120000Y-96012000D03*
X182880000Y-68072000D03*
X198120000Y-98552000D03*
X182880000Y-65532000D03*
X198120000Y-101092000D03*
X182880000Y-62992000D03*
X198120000Y-103632000D03*
X182880000Y-60452000D03*
X198120000Y-106172000D03*
G36*
G01*
X182030000Y-58712000D02*
X182030000Y-57112000D01*
G75*
G02*
X182080000Y-57062000I50000J0D01*
G01*
X183680000Y-57062000D01*
G75*
G02*
X183730000Y-57112000I0J-50000D01*
G01*
X183730000Y-58712000D01*
G75*
G02*
X183680000Y-58762000I-50000J0D01*
G01*
X182080000Y-58762000D01*
G75*
G02*
X182030000Y-58712000I0J50000D01*
G01*
G37*
D10*
X198120000Y-139192000D03*
X198120000Y-141732000D03*
X195580000Y-139192000D03*
X195580000Y-141732000D03*
X193040000Y-139192000D03*
X193040000Y-141732000D03*
X190500000Y-139192000D03*
X190500000Y-141732000D03*
X187960000Y-139192000D03*
X187960000Y-141732000D03*
X185420000Y-139192000D03*
X185420000Y-141732000D03*
X182880000Y-139192000D03*
X182880000Y-141732000D03*
X180340000Y-139192000D03*
X180340000Y-141732000D03*
X177800000Y-139192000D03*
X177800000Y-141732000D03*
X175260000Y-139192000D03*
X175260000Y-141732000D03*
X172720000Y-139192000D03*
X172720000Y-141732000D03*
X170180000Y-139192000D03*
X170180000Y-141732000D03*
X167640000Y-139192000D03*
G36*
G01*
X168490000Y-142632000D02*
X166790000Y-142632000D01*
G75*
G02*
X166740000Y-142582000I0J50000D01*
G01*
X166740000Y-140882000D01*
G75*
G02*
X166790000Y-140832000I50000J0D01*
G01*
X168490000Y-140832000D01*
G75*
G02*
X168540000Y-140882000I0J-50000D01*
G01*
X168540000Y-142582000D01*
G75*
G02*
X168490000Y-142632000I-50000J0D01*
G01*
G37*
D13*
X152908000Y-52578000D03*
X150368000Y-52578000D03*
X147828000Y-52578000D03*
X145288000Y-52578000D03*
X142748000Y-52578000D03*
X140208000Y-52578000D03*
X137668000Y-52578000D03*
X135128000Y-52578000D03*
G36*
G01*
X131738000Y-53378000D02*
X131738000Y-51778000D01*
G75*
G02*
X131788000Y-51728000I50000J0D01*
G01*
X133388000Y-51728000D01*
G75*
G02*
X133438000Y-51778000I0J-50000D01*
G01*
X133438000Y-53378000D01*
G75*
G02*
X133388000Y-53428000I-50000J0D01*
G01*
X131788000Y-53428000D01*
G75*
G02*
X131738000Y-53378000I0J50000D01*
G01*
G37*
D17*
X114648000Y-146020000D03*
X107348000Y-146020000D03*
D18*
X111798000Y-142445000D03*
X110198000Y-142445000D03*
X112598000Y-140695000D03*
X109398000Y-140695000D03*
X110998000Y-140695000D03*
D10*
X104394000Y-106172000D03*
X101854000Y-106172000D03*
X104394000Y-103632000D03*
X101854000Y-103632000D03*
X104394000Y-101092000D03*
X101854000Y-101092000D03*
X104394000Y-98552000D03*
X101854000Y-98552000D03*
X104394000Y-96012000D03*
X101854000Y-96012000D03*
X104394000Y-93472000D03*
X101854000Y-93472000D03*
X104394000Y-90932000D03*
X101854000Y-90932000D03*
X104394000Y-88392000D03*
X101854000Y-88392000D03*
X104394000Y-85852000D03*
X101854000Y-85852000D03*
X104394000Y-83312000D03*
X101854000Y-83312000D03*
X104394000Y-80772000D03*
X101854000Y-80772000D03*
X104394000Y-78232000D03*
X101854000Y-78232000D03*
X104394000Y-75692000D03*
X101854000Y-75692000D03*
X104394000Y-73152000D03*
X101854000Y-73152000D03*
X104394000Y-70612000D03*
X101854000Y-70612000D03*
X104394000Y-68072000D03*
X101854000Y-68072000D03*
X104394000Y-65532000D03*
X101854000Y-65532000D03*
X104394000Y-62992000D03*
X101854000Y-62992000D03*
X104394000Y-60452000D03*
X101854000Y-60452000D03*
X104394000Y-57912000D03*
G36*
G01*
X100954000Y-58762000D02*
X100954000Y-57062000D01*
G75*
G02*
X101004000Y-57012000I50000J0D01*
G01*
X102704000Y-57012000D01*
G75*
G02*
X102754000Y-57062000I0J-50000D01*
G01*
X102754000Y-58762000D01*
G75*
G02*
X102704000Y-58812000I-50000J0D01*
G01*
X101004000Y-58812000D01*
G75*
G02*
X100954000Y-58762000I0J50000D01*
G01*
G37*
D19*
X108712000Y-136017000D03*
G36*
G01*
X109612000Y-139507000D02*
X107812000Y-139507000D01*
G75*
G02*
X107762000Y-139457000I0J50000D01*
G01*
X107762000Y-137657000D01*
G75*
G02*
X107812000Y-137607000I50000J0D01*
G01*
X109612000Y-137607000D01*
G75*
G02*
X109662000Y-137657000I0J-50000D01*
G01*
X109662000Y-139457000D01*
G75*
G02*
X109612000Y-139507000I-50000J0D01*
G01*
G37*
X113284000Y-136017000D03*
G36*
G01*
X114184000Y-139507000D02*
X112384000Y-139507000D01*
G75*
G02*
X112334000Y-139457000I0J50000D01*
G01*
X112334000Y-137657000D01*
G75*
G02*
X112384000Y-137607000I50000J0D01*
G01*
X114184000Y-137607000D01*
G75*
G02*
X114234000Y-137657000I0J-50000D01*
G01*
X114234000Y-139457000D01*
G75*
G02*
X114184000Y-139507000I-50000J0D01*
G01*
G37*
D20*
X107336200Y-122732800D03*
X107336200Y-129232800D03*
X111836200Y-129232800D03*
G36*
G01*
X110736200Y-121582800D02*
X112936200Y-121582800D01*
G75*
G02*
X112986200Y-121632800I0J-50000D01*
G01*
X112986200Y-123832800D01*
G75*
G02*
X112936200Y-123882800I-50000J0D01*
G01*
X110736200Y-123882800D01*
G75*
G02*
X110686200Y-123832800I0J50000D01*
G01*
X110686200Y-121632800D01*
G75*
G02*
X110736200Y-121582800I50000J0D01*
G01*
G37*
D14*
X102529000Y-134747000D03*
X105029000Y-134747000D03*
D13*
X180086000Y-57912000D03*
X164846000Y-90932000D03*
X180086000Y-60452000D03*
X164846000Y-88392000D03*
X180086000Y-62992000D03*
X164846000Y-85852000D03*
X180086000Y-65532000D03*
X164846000Y-83312000D03*
X180086000Y-68072000D03*
X164846000Y-80772000D03*
X180086000Y-70612000D03*
X164846000Y-78232000D03*
X180086000Y-73152000D03*
X164846000Y-75692000D03*
X180086000Y-75692000D03*
X164846000Y-73152000D03*
X180086000Y-78232000D03*
X164846000Y-70612000D03*
X180086000Y-80772000D03*
X164846000Y-68072000D03*
X180086000Y-83312000D03*
X164846000Y-65532000D03*
X180086000Y-85852000D03*
X164846000Y-62992000D03*
X180086000Y-88392000D03*
X164846000Y-60452000D03*
X180086000Y-90932000D03*
G36*
G01*
X163996000Y-58712000D02*
X163996000Y-57112000D01*
G75*
G02*
X164046000Y-57062000I50000J0D01*
G01*
X165646000Y-57062000D01*
G75*
G02*
X165696000Y-57112000I0J-50000D01*
G01*
X165696000Y-58712000D01*
G75*
G02*
X165646000Y-58762000I-50000J0D01*
G01*
X164046000Y-58762000D01*
G75*
G02*
X163996000Y-58712000I0J50000D01*
G01*
G37*
G36*
G01*
X166028000Y-111798000D02*
X166028000Y-110198000D01*
G75*
G02*
X166078000Y-110148000I50000J0D01*
G01*
X167678000Y-110148000D01*
G75*
G02*
X167728000Y-110198000I0J-50000D01*
G01*
X167728000Y-111798000D01*
G75*
G02*
X167678000Y-111848000I-50000J0D01*
G01*
X166078000Y-111848000D01*
G75*
G02*
X166028000Y-111798000I0J50000D01*
G01*
G37*
X174498000Y-133858000D03*
X166878000Y-113538000D03*
X174498000Y-131318000D03*
X166878000Y-116078000D03*
X174498000Y-128778000D03*
X166878000Y-118618000D03*
X174498000Y-126238000D03*
X166878000Y-121158000D03*
X174498000Y-123698000D03*
X166878000Y-123698000D03*
X174498000Y-121158000D03*
X166878000Y-126238000D03*
X174498000Y-118618000D03*
X166878000Y-128778000D03*
X174498000Y-116078000D03*
X166878000Y-131318000D03*
X174498000Y-113538000D03*
X166878000Y-133858000D03*
X174498000Y-110998000D03*
D14*
X163957000Y-108077000D03*
X166457000Y-108077000D03*
X159552000Y-55118000D03*
X162052000Y-55118000D03*
X178381020Y-55107840D03*
X180881020Y-55107840D03*
X193254000Y-55118000D03*
X190754000Y-55118000D03*
G36*
G01*
X127707000Y-137565000D02*
X127707000Y-136015000D01*
G75*
G02*
X127757000Y-135965000I50000J0D01*
G01*
X128757000Y-135965000D01*
G75*
G02*
X128807000Y-136015000I0J-50000D01*
G01*
X128807000Y-137565000D01*
G75*
G02*
X128757000Y-137615000I-50000J0D01*
G01*
X127757000Y-137615000D01*
G75*
G02*
X127707000Y-137565000I0J50000D01*
G01*
G37*
G36*
G01*
X127507000Y-148215000D02*
X127507000Y-146715000D01*
G75*
G02*
X127557000Y-146665000I50000J0D01*
G01*
X129057000Y-146665000D01*
G75*
G02*
X129107000Y-146715000I0J-50000D01*
G01*
X129107000Y-148215000D01*
G75*
G02*
X129057000Y-148265000I-50000J0D01*
G01*
X127557000Y-148265000D01*
G75*
G02*
X127507000Y-148215000I0J50000D01*
G01*
G37*
G36*
G01*
X125457000Y-148465000D02*
X125457000Y-146715000D01*
G75*
G02*
X125507000Y-146665000I50000J0D01*
G01*
X126207000Y-146665000D01*
G75*
G02*
X126257000Y-146715000I0J-50000D01*
G01*
X126257000Y-148465000D01*
G75*
G02*
X126207000Y-148515000I-50000J0D01*
G01*
X125507000Y-148515000D01*
G75*
G02*
X125457000Y-148465000I0J50000D01*
G01*
G37*
G36*
G01*
X124357000Y-148465000D02*
X124357000Y-146715000D01*
G75*
G02*
X124407000Y-146665000I50000J0D01*
G01*
X125107000Y-146665000D01*
G75*
G02*
X125157000Y-146715000I0J-50000D01*
G01*
X125157000Y-148465000D01*
G75*
G02*
X125107000Y-148515000I-50000J0D01*
G01*
X124407000Y-148515000D01*
G75*
G02*
X124357000Y-148465000I0J50000D01*
G01*
G37*
G36*
G01*
X123257000Y-148465000D02*
X123257000Y-146715000D01*
G75*
G02*
X123307000Y-146665000I50000J0D01*
G01*
X124007000Y-146665000D01*
G75*
G02*
X124057000Y-146715000I0J-50000D01*
G01*
X124057000Y-148465000D01*
G75*
G02*
X124007000Y-148515000I-50000J0D01*
G01*
X123307000Y-148515000D01*
G75*
G02*
X123257000Y-148465000I0J50000D01*
G01*
G37*
G36*
G01*
X122157000Y-148465000D02*
X122157000Y-146715000D01*
G75*
G02*
X122207000Y-146665000I50000J0D01*
G01*
X122907000Y-146665000D01*
G75*
G02*
X122957000Y-146715000I0J-50000D01*
G01*
X122957000Y-148465000D01*
G75*
G02*
X122907000Y-148515000I-50000J0D01*
G01*
X122207000Y-148515000D01*
G75*
G02*
X122157000Y-148465000I0J50000D01*
G01*
G37*
G36*
G01*
X121057000Y-148465000D02*
X121057000Y-146715000D01*
G75*
G02*
X121107000Y-146665000I50000J0D01*
G01*
X121807000Y-146665000D01*
G75*
G02*
X121857000Y-146715000I0J-50000D01*
G01*
X121857000Y-148465000D01*
G75*
G02*
X121807000Y-148515000I-50000J0D01*
G01*
X121107000Y-148515000D01*
G75*
G02*
X121057000Y-148465000I0J50000D01*
G01*
G37*
G36*
G01*
X119957000Y-148465000D02*
X119957000Y-146715000D01*
G75*
G02*
X120007000Y-146665000I50000J0D01*
G01*
X120707000Y-146665000D01*
G75*
G02*
X120757000Y-146715000I0J-50000D01*
G01*
X120757000Y-148465000D01*
G75*
G02*
X120707000Y-148515000I-50000J0D01*
G01*
X120007000Y-148515000D01*
G75*
G02*
X119957000Y-148465000I0J50000D01*
G01*
G37*
G36*
G01*
X118857000Y-148465000D02*
X118857000Y-146715000D01*
G75*
G02*
X118907000Y-146665000I50000J0D01*
G01*
X119607000Y-146665000D01*
G75*
G02*
X119657000Y-146715000I0J-50000D01*
G01*
X119657000Y-148465000D01*
G75*
G02*
X119607000Y-148515000I-50000J0D01*
G01*
X118907000Y-148515000D01*
G75*
G02*
X118857000Y-148465000I0J50000D01*
G01*
G37*
G36*
G01*
X128207000Y-139915000D02*
X128207000Y-138515000D01*
G75*
G02*
X128257000Y-138465000I50000J0D01*
G01*
X129057000Y-138465000D01*
G75*
G02*
X129107000Y-138515000I0J-50000D01*
G01*
X129107000Y-139915000D01*
G75*
G02*
X129057000Y-139965000I-50000J0D01*
G01*
X128257000Y-139965000D01*
G75*
G02*
X128207000Y-139915000I0J50000D01*
G01*
G37*
G36*
G01*
X116257000Y-138865000D02*
X116257000Y-137865000D01*
G75*
G02*
X116307000Y-137815000I50000J0D01*
G01*
X117757000Y-137815000D01*
G75*
G02*
X117807000Y-137865000I0J-50000D01*
G01*
X117807000Y-138865000D01*
G75*
G02*
X117757000Y-138915000I-50000J0D01*
G01*
X116307000Y-138915000D01*
G75*
G02*
X116257000Y-138865000I0J50000D01*
G01*
G37*
G36*
G01*
X116257000Y-140615000D02*
X116257000Y-139115000D01*
G75*
G02*
X116307000Y-139065000I50000J0D01*
G01*
X117107000Y-139065000D01*
G75*
G02*
X117157000Y-139115000I0J-50000D01*
G01*
X117157000Y-140615000D01*
G75*
G02*
X117107000Y-140665000I-50000J0D01*
G01*
X116307000Y-140665000D01*
G75*
G02*
X116257000Y-140615000I0J50000D01*
G01*
G37*
G36*
G01*
X116257000Y-148215000D02*
X116257000Y-146715000D01*
G75*
G02*
X116307000Y-146665000I50000J0D01*
G01*
X117607000Y-146665000D01*
G75*
G02*
X117657000Y-146715000I0J-50000D01*
G01*
X117657000Y-148215000D01*
G75*
G02*
X117607000Y-148265000I-50000J0D01*
G01*
X116307000Y-148265000D01*
G75*
G02*
X116257000Y-148215000I0J50000D01*
G01*
G37*
G36*
G01*
X117757000Y-148465000D02*
X117757000Y-146715000D01*
G75*
G02*
X117807000Y-146665000I50000J0D01*
G01*
X118507000Y-146665000D01*
G75*
G02*
X118557000Y-146715000I0J-50000D01*
G01*
X118557000Y-148465000D01*
G75*
G02*
X118507000Y-148515000I-50000J0D01*
G01*
X117807000Y-148515000D01*
G75*
G02*
X117757000Y-148465000I0J50000D01*
G01*
G37*
X198207000Y-108712000D03*
X195707000Y-108712000D03*
X193141600Y-110883700D03*
X193141600Y-113383700D03*
X141518000Y-55118000D03*
X144018000Y-55118000D03*
X107696000Y-80812000D03*
X107696000Y-83312000D03*
X198221600Y-110883700D03*
X198221600Y-113383700D03*
X153670000Y-115824000D03*
X151170000Y-115824000D03*
X143256000Y-115824000D03*
X145756000Y-115824000D03*
X135636000Y-115824000D03*
X138136000Y-115824000D03*
X190500000Y-108712000D03*
X193000000Y-108712000D03*
X174518320Y-108201460D03*
X172018320Y-108201460D03*
X190601600Y-110883700D03*
X190601600Y-113383700D03*
X195681600Y-110883700D03*
X195681600Y-113383700D03*
D16*
X103000000Y-53000000D03*
X197000000Y-53000000D03*
X103000000Y-147000000D03*
G36*
G01*
X179236000Y-111798000D02*
X179236000Y-110198000D01*
G75*
G02*
X179286000Y-110148000I50000J0D01*
G01*
X180886000Y-110148000D01*
G75*
G02*
X180936000Y-110198000I0J-50000D01*
G01*
X180936000Y-111798000D01*
G75*
G02*
X180886000Y-111848000I-50000J0D01*
G01*
X179286000Y-111848000D01*
G75*
G02*
X179236000Y-111798000I0J50000D01*
G01*
G37*
D13*
X187706000Y-133858000D03*
X180086000Y-113538000D03*
X187706000Y-131318000D03*
X180086000Y-116078000D03*
X187706000Y-128778000D03*
X180086000Y-118618000D03*
X187706000Y-126238000D03*
X180086000Y-121158000D03*
X187706000Y-123698000D03*
X180086000Y-123698000D03*
X187706000Y-121158000D03*
X180086000Y-126238000D03*
X187706000Y-118618000D03*
X180086000Y-128778000D03*
X187706000Y-116078000D03*
X180086000Y-131318000D03*
X187706000Y-113538000D03*
X180086000Y-133858000D03*
X187706000Y-110998000D03*
G36*
G01*
X155614000Y-111798000D02*
X155614000Y-110198000D01*
G75*
G02*
X155664000Y-110148000I50000J0D01*
G01*
X157264000Y-110148000D01*
G75*
G02*
X157314000Y-110198000I0J-50000D01*
G01*
X157314000Y-111798000D01*
G75*
G02*
X157264000Y-111848000I-50000J0D01*
G01*
X155664000Y-111848000D01*
G75*
G02*
X155614000Y-111798000I0J50000D01*
G01*
G37*
X164084000Y-133858000D03*
X156464000Y-113538000D03*
X164084000Y-131318000D03*
X156464000Y-116078000D03*
X164084000Y-128778000D03*
X156464000Y-118618000D03*
X164084000Y-126238000D03*
X156464000Y-121158000D03*
X164084000Y-123698000D03*
X156464000Y-123698000D03*
X164084000Y-121158000D03*
X156464000Y-126238000D03*
X164084000Y-118618000D03*
X156464000Y-128778000D03*
X164084000Y-116078000D03*
X156464000Y-131318000D03*
X164084000Y-113538000D03*
X156464000Y-133858000D03*
X164084000Y-110998000D03*
G36*
G01*
X124372000Y-116878000D02*
X124372000Y-115278000D01*
G75*
G02*
X124422000Y-115228000I50000J0D01*
G01*
X126022000Y-115228000D01*
G75*
G02*
X126072000Y-115278000I0J-50000D01*
G01*
X126072000Y-116878000D01*
G75*
G02*
X126022000Y-116928000I-50000J0D01*
G01*
X124422000Y-116928000D01*
G75*
G02*
X124372000Y-116878000I0J50000D01*
G01*
G37*
X132842000Y-133858000D03*
X125222000Y-118618000D03*
X132842000Y-131318000D03*
X125222000Y-121158000D03*
X132842000Y-128778000D03*
X125222000Y-123698000D03*
X132842000Y-126238000D03*
X125222000Y-126238000D03*
X132842000Y-123698000D03*
X125222000Y-128778000D03*
X132842000Y-121158000D03*
X125222000Y-131318000D03*
X132842000Y-118618000D03*
X125222000Y-133858000D03*
X132842000Y-116078000D03*
D21*
G36*
X117758732Y-146664000D02*
G01*
X117759000Y-146665000D01*
X117759000Y-148364999D01*
X117758000Y-148366731D01*
X117756000Y-148366731D01*
X117755010Y-148365195D01*
X117753109Y-148345885D01*
X117747531Y-148327500D01*
X117738476Y-148310559D01*
X117726290Y-148295710D01*
X117711441Y-148283524D01*
X117694500Y-148274469D01*
X117676115Y-148268891D01*
X117656805Y-148266990D01*
X117656815Y-148266893D01*
X117655268Y-148266000D01*
X117655000Y-148265000D01*
X117655000Y-146665000D01*
X117656000Y-146663268D01*
X117657000Y-146663000D01*
X117757000Y-146663000D01*
X117758732Y-146664000D01*
G37*
G36*
X117258731Y-138914000D02*
G01*
X117258731Y-138916000D01*
X117257195Y-138916990D01*
X117237885Y-138918891D01*
X117219500Y-138924469D01*
X117202559Y-138933524D01*
X117187710Y-138945710D01*
X117175524Y-138960559D01*
X117166469Y-138977500D01*
X117160891Y-138995885D01*
X117159000Y-139015093D01*
X117159000Y-139065000D01*
X117158000Y-139066732D01*
X117157000Y-139067000D01*
X116257000Y-139067000D01*
X116255268Y-139066000D01*
X116255000Y-139065000D01*
X116255000Y-138915000D01*
X116256000Y-138913268D01*
X116257000Y-138913000D01*
X117256999Y-138913000D01*
X117258731Y-138914000D01*
G37*
M02*
